# xmcd
#
# Track frame offsets:
#	151
#	16888
#	29893
#	42639
#	58212
#	68358
#	78026
#	87588
#	100424
#	113982
#	132481
#	149725
#
# Disc length: 2155 seconds
#
# Revision: 0
# Processed by: cddbd v1.5.2PL0 Copyright (c) Steve Scherf et al.
# Submitted via: dBpowerAMP V4.0
#
DISCID=b108690c
DTITLE=Heidi Hauge - Some Broken Hearts
DYEAR=2007
DGENRE=Country
TTITLE0=Saturday Night
TTITLE1=The Other Side of The Hill
TTITLE2=Some Broken Hearts Never Mend
TTITLE3=Down to my Last Teardrop
TTITLE4=What's a Girl Gotta Do
TTITLE5=Let's Pretend
TTITLE6=Louisiana Saturday Night
TTITLE7=I've Already Loved You in my Mind
TTITLE8=Why Have You Left The One You Left me For
TTITLE9=Crazy
TTITLE10=I'll Fly
TTITLE11=One's on The Way
EXTD=Uffe Hassing Jacobsen
EXTT0=
EXTT1=
EXTT2=
EXTT3=
EXTT4=
EXTT5=
EXTT6=
EXTT7=
EXTT8=
EXTT9=
EXTT10=
EXTT11=
PLAYORDER=
